<mxfile host="app.diagrams.net" modified="2024-03-02T06:51:41.648Z" agent="Mozilla/5.0 (Windows NT 10.0; Win64; x64) AppleWebKit/537.36 (KHTML, like Gecko) Chrome/119.0.0.0 Safari/537.36 Edg/119.0.0.0" version="24.0.0" etag="d4y9XH7bsY2vUzQKmTsQ" type="github">
  <diagram name="第 1 页" id="69BJdF0idNnMKH3BlW-o">
    <mxGraphModel>
      <root>
        <mxCell id="0" />
        <mxCell id="1" parent="0" />
      </root>
    </mxGraphModel>
  </diagram>
</mxfile>
